<svg width="175" height="190" viewBox="0 0 175 190" fill="none" xmlns="http://www.w3.org/2000/svg">
<path d="M151.51 185.379L145.877 183.526C139.596 181.16 132.897 180.104 126.193 180.423C119.489 180.741 112.92 182.428 106.892 185.379L104.001 186.788C97.6569 184.796 91.4223 182.47 85.3236 179.82C71.2891 173.773 58.0068 166.111 45.7451 156.99L44.3369 155.878C43.7219 155.465 43.2449 154.877 42.9674 154.19C42.69 153.502 42.6248 152.748 42.7804 152.024C43.2251 150.541 44.8557 150.615 46.0415 150.541C51.9546 150.318 57.876 150.541 63.7555 151.208C81.0989 152.468 98.3682 154.84 115.637 155.878C121.751 156.274 127.89 156.001 133.944 155.063C140.393 154.025 143.283 150.986 144.766 143.647C145.423 140.578 145.746 137.447 145.729 134.308C145.729 118.519 145.729 102.731 145.729 86.9425C145.729 76.5651 146.767 66.1876 146.396 55.7361C146.359 55.2674 146.359 54.7965 146.396 54.3277C146.428 53.9458 146.562 53.5795 146.784 53.2667C147.005 52.9539 147.307 52.7061 147.656 52.5488C148.032 52.4325 148.437 52.4503 148.802 52.5989C149.167 52.7476 149.469 53.018 149.657 53.3642C151.553 55.6192 153.147 58.1109 154.401 60.7766C162.024 76.1861 167.391 92.6123 170.336 109.55C172.556 121.098 173.155 132.898 172.115 144.611C171.438 156.853 166.985 168.584 159.367 178.19C156.918 180.766 154.293 183.168 151.51 185.379Z" fill="#EE7D20"/>
<path d="M122.382 33.4233C119.838 34.1993 117.184 34.5499 114.525 34.461C104.149 34.461 93.8468 34.0163 83.5445 33.4233C76.1328 33.0527 69.24 32.6821 62.1989 32.5339C56.603 32.3985 51.0046 32.671 45.4483 33.3492C40.4742 33.6712 35.8125 35.8866 32.4213 39.54C29.0301 43.1935 27.1673 48.0074 27.2156 52.9921C26.8071 57.2536 26.6586 61.536 26.7709 65.8156C27.2156 80.6404 26.7709 95.4653 26.7709 110.661C26.7709 119.185 26.1779 127.784 26.0297 136.382C26.0297 137.271 26.0298 138.457 25.2886 138.828C24.5474 139.199 23.6579 138.235 22.9909 137.642C21.6443 136.267 20.5192 134.692 19.6556 132.972C11.8269 118.572 6.37107 103.004 3.49816 86.867C1.0825 75.8401 -0.0860125 64.5765 0.0146454 53.2886C-0.256831 40.5716 3.25123 28.0601 10.0946 17.3384C13.9191 11.3554 19.3604 6.57861 25.7879 3.56131C32.2154 0.544003 39.3662 -0.590313 46.4119 0.289756C62.5653 2.11435 78.1899 7.15504 92.3644 15.1146C101.036 19.5621 109.708 24.2319 118.083 29.2724C119.828 30.2913 121.302 31.7149 122.382 33.4233Z" fill="#242C84"/>
<path d="M174.264 12.2249C173.004 13.6333 171.818 15.0416 170.484 16.3758C152.696 33.202 135.278 50.473 117.564 67.4474C109.708 74.8599 102.296 82.9394 93.9209 89.6847C92.6609 90.7225 92.068 90.6483 91.0304 89.6847C87.6951 85.8303 84.2857 82.2723 80.8022 78.1954C79.394 76.713 80.2834 75.8976 81.3951 75.0822C86.0645 71.8208 90.6598 68.6334 95.4033 65.4461L171.966 13.1143L174.041 11.8542L174.264 12.2249Z" fill="#1DB0EB"/>
<path d="M110 188L103.5 186.5C105.5 184 109.6 178.9 110 178.5C110.4 178.1 121.167 175.667 126.5 174.5L141 174L156.5 179.5C156 181.833 152.5 186.8 142.5 188C130 189.5 125.5 189 120.5 189C116.5 189 111.833 188.333 110 188Z" fill="#EE7D20"/>
</svg>
